<?xml version="1.0" encoding="utf-8"?>
<!-- Generator: Adobe Illustrator 16.0.0, SVG Export Plug-In . SVG Version: 6.00 Build 0)  -->
<!DOCTYPE svg PUBLIC "-//W3C//DTD SVG 1.1//EN" "http://www.w3.org/Graphics/SVG/1.1/DTD/svg11.dtd">
<svg version="1.1" id="Layer_1" xmlns="http://www.w3.org/2000/svg" xmlns:xlink="http://www.w3.org/1999/xlink" x="0px" y="0px"
	 width="570.635px" height="164.209px" viewBox="0 0 570.635 164.209" enable-background="new 0 0 570.635 164.209"
	 xml:space="preserve">
<g>
	<g>
		<g>
			<g>
				<rect y="34.781" fill-rule="evenodd" clip-rule="evenodd" fill="#CF989F" width="20.688" height="17.399"/>
				<rect y="17.396" fill-rule="evenodd" clip-rule="evenodd" fill="#DCABB3" width="20.688" height="17.386"/>
				<rect fill-rule="evenodd" clip-rule="evenodd" fill="#99A2CE" width="20.688" height="17.396"/>
				<rect x="20.688" y="34.781" fill-rule="evenodd" clip-rule="evenodd" fill="#DCABB3" width="20.688" height="17.399"/>
				<rect x="20.688" y="17.396" fill-rule="evenodd" clip-rule="evenodd" fill="#FFFFFF" width="20.688" height="17.386"/>
				<rect x="20.688" fill-rule="evenodd" clip-rule="evenodd" fill="#CF989F" width="20.688" height="17.396"/>
				<rect x="41.383" y="34.781" fill-rule="evenodd" clip-rule="evenodd" fill="#99A2CE" width="20.688" height="17.399"/>
				<rect x="41.383" y="17.396" fill-rule="evenodd" clip-rule="evenodd" fill="#CF989F" width="20.688" height="17.386"/>
				<rect x="41.383" fill-rule="evenodd" clip-rule="evenodd" fill="#DCABB3" width="20.688" height="17.396"/>
			</g>
			<path fill-rule="evenodd" clip-rule="evenodd" fill="#94185B" d="M30.683,0C16.277,0,4.592,11.687,4.592,26.085
				c0,14.418,11.686,26.096,26.091,26.096c14.409,0,26.085-11.677,26.085-26.096V0H30.683z"/>
			<g>
				<path fill-rule="evenodd" clip-rule="evenodd" fill="#682F75" d="M55.281,34.781H41.383v15.098
					C47.844,46.975,52.896,41.509,55.281,34.781z"/>
				<path fill-rule="evenodd" clip-rule="evenodd" fill="#802638" d="M41.375,34.781H20.688V50.19c3.075,1.28,6.462,1.99,9.995,1.99
					c3.81,0,7.425-0.825,10.692-2.287V34.781z"/>
				<path fill-rule="evenodd" clip-rule="evenodd" fill="#562122" d="M20.688,50.19V34.781H6.076
					C8.541,41.767,13.892,47.375,20.688,50.19z"/>
				<path fill-rule="evenodd" clip-rule="evenodd" fill="#802638" d="M4.592,26.085c0,3.058,0.523,5.983,1.484,8.696h14.611V17.396
					H6.076C5.115,20.118,4.592,23.034,4.592,26.085z"/>
				<path fill-rule="evenodd" clip-rule="evenodd" fill="#682F75" d="M20.688,17.396V1.986C13.892,4.809,8.55,10.418,6.076,17.396
					H20.688z"/>
				<path fill-rule="evenodd" clip-rule="evenodd" fill="#562122" d="M20.688,17.396h20.688V0H30.683
					c-3.533,0-6.92,0.712-9.995,1.986V17.396z"/>
				<rect x="41.383" fill-rule="evenodd" clip-rule="evenodd" fill="#802638" width="15.385" height="17.396"/>
				<path fill-rule="evenodd" clip-rule="evenodd" fill="#562122" d="M41.383,17.396v17.386h13.898
					c0.954-2.713,1.486-5.638,1.486-8.696v-8.689H41.383z"/>
			</g>
			<rect x="20.688" y="17.396" fill-rule="evenodd" clip-rule="evenodd" fill="#FFFFFF" width="20.688" height="17.386"/>
			<g>
				<defs>
					<path id="SVGID_1_" d="M0,61.454v102.755h53.13c4.911,0,8.94-4.019,8.94-8.945v-93.81H0z"/>
				</defs>
				<use xlink:href="#SVGID_1_"  overflow="visible" fill="#7075B3"/>
				<clipPath id="SVGID_2_">
					<use xlink:href="#SVGID_1_"  overflow="visible"/>
				</clipPath>
				<g clip-path="url(#SVGID_2_)">
					<rect y="61.454" fill-rule="evenodd" clip-rule="evenodd" fill="#562122" width="20.688" height="17.136"/>
					<rect x="20.688" y="61.454" fill-rule="evenodd" clip-rule="evenodd" fill="#1E3378" width="20.695" height="17.136"/>
					<rect x="41.383" y="61.454" fill-rule="evenodd" clip-rule="evenodd" fill="#802638" width="20.688" height="17.136"/>
					<rect y="78.59" fill-rule="evenodd" clip-rule="evenodd" fill="#802638" width="20.688" height="17.121"/>
					<rect x="20.688" y="78.59" fill-rule="evenodd" clip-rule="evenodd" fill="#C07682" width="20.695" height="17.121"/>
					<rect x="41.383" y="78.59" fill-rule="evenodd" clip-rule="evenodd" fill="#1E3378" width="20.688" height="17.121"/>
					<rect y="95.711" fill-rule="evenodd" clip-rule="evenodd" fill="#C07682" width="20.688" height="17.13"/>
					<rect x="20.688" y="95.711" fill-rule="evenodd" clip-rule="evenodd" fill="#D393A0" width="20.695" height="17.13"/>
					<rect x="41.383" y="95.711" fill-rule="evenodd" clip-rule="evenodd" fill="#7381BB" width="20.688" height="17.13"/>
					<rect y="112.841" fill-rule="evenodd" clip-rule="evenodd" fill="#802638" width="20.688" height="17.115"/>
					<rect x="20.688" y="112.841" fill-rule="evenodd" clip-rule="evenodd" fill="#8A94C6" width="20.695" height="17.115"/>
					<rect x="41.383" y="112.841" fill-rule="evenodd" clip-rule="evenodd" fill="#802638" width="20.688" height="17.115"/>
					<rect y="129.956" fill-rule="evenodd" clip-rule="evenodd" fill="#562122" width="20.688" height="17.132"/>
					<rect x="20.688" y="129.956" fill-rule="evenodd" clip-rule="evenodd" fill="#C07682" width="20.695" height="17.132"/>
					<rect x="41.383" y="129.956" fill-rule="evenodd" clip-rule="evenodd" fill="#562122" width="20.688" height="17.132"/>
					<rect y="147.088" fill-rule="evenodd" clip-rule="evenodd" fill="#802638" width="20.688" height="17.121"/>
					<rect x="20.688" y="147.088" fill-rule="evenodd" clip-rule="evenodd" fill="#562122" width="20.695" height="17.121"/>
					<rect x="41.383" y="147.088" fill-rule="evenodd" clip-rule="evenodd" fill="#802638" width="20.688" height="17.121"/>
				</g>
			</g>
		</g>
		<g>
			<g>
				<g>
					<path fill="#802638" d="M118.939,61.54v34.67H77.769v68h53.208c4.92,0,8.939-4.019,8.939-8.945V61.54H118.939z
						 M118.939,139.706c0,2.464-2.019,4.474-4.474,4.474H98.752v-27.938h20.188V139.706z"/>
				</g>
			</g>
			<path fill="#802638" d="M217.747,96.209h-21.266v43.497c0,2.464-2.019,4.474-4.474,4.474h-15.135v-47.97h-21.251v68h53.171
				c4.918,0,8.954-4.019,8.954-8.945V96.209z"/>
		</g>
	</g>
	<g>
		<g>
			<g>
				<path fill="#886974" d="M311.325,140.506V96.814H301.25v48.006h5.661C309.725,144.82,311.325,143.813,311.325,140.506z
					 M310.76,157.691h-31.076v-16.509h-10.186v15.461c0,2.269,0.671,4.047,1.999,5.348c1.339,1.296,3.012,1.949,5.017,1.949h36.922
					v-3.508C313.436,158.689,312.805,157.691,310.76,157.691z M290.215,129.318c3.719-3.531,5.573-7.794,5.573-12.786
					c0-5.005-1.854-9.267-5.573-12.789c-3.73-3.528-8.176-5.299-13.334-5.299c-5.105,0-9.517,1.771-13.203,5.299
					c-3.706,3.522-5.544,7.784-5.544,12.789c0,4.992,1.838,9.255,5.544,12.786c3.687,3.523,8.098,5.293,13.203,5.293
					C282.039,134.611,286.484,132.842,290.215,129.318z M270.54,125.313c-1.764-2.422-2.66-5.361-2.66-8.781
					c0-3.434,0.896-6.367,2.66-8.793c1.758-2.42,3.872-3.639,6.332-3.639c2.522,0,4.67,1.219,6.473,3.639
					c1.796,2.426,2.702,5.36,2.702,8.793c0,3.42-0.906,6.359-2.702,8.781c-1.803,2.423-3.95,3.643-6.473,3.643
					C274.412,128.956,272.298,127.736,270.54,125.313z"/>
			</g>
			<g>
				<g>
					<path fill="#886974" d="M520.525,99.916h44.189v25.666c0,4.548-0.336,8.522-1,11.918c-0.67,3.4-1.595,6.169-2.776,8.306h-8.807
						c1.28-2.355,2.057-5.181,2.33-8.469c0.269-3.288,0.406-7.479,0.406-12.584v-18.501h-34.343V99.916z"/>
				</g>
				<path fill="#886974" d="M570.635,156.33c0-1.743-0.633-2.737-2.677-2.737h-18.217v-27.387h-9.624v27.387h-4.954v-27.387h-9.626
					v27.387h-9.527v6.254h54.625V156.33z"/>
			</g>
			<g>
				<path fill="#886974" d="M457.119,146.345h34.625v17.596h5.731c2.854,0,4.479-1.024,4.479-4.37v-19.389h-44.835V146.345z"/>
				<path fill="#886974" d="M501.954,111.467V96.814h-10.21v39.236h5.731c2.854,0,4.479-1.013,4.479-4.37v-14.142h9.124v-6.072
					H501.954z"/>
				<path fill="#886974" d="M486.612,99.916h-13.102v-5.746h-10.144v5.746h-13.102v5.974h8.869c-0.85,0.565-1.666,1.222-2.44,1.96
					c-3.293,3.139-4.938,6.94-4.938,11.387c0,4.456,1.645,8.247,4.938,11.395c3.29,3.135,7.207,4.706,11.753,4.706
					c4.598,0,8.556-1.571,11.87-4.706c3.318-3.147,4.973-6.938,4.973-11.395c0-4.446-1.654-8.248-4.973-11.387
					c-0.781-0.738-1.601-1.395-2.459-1.96h8.754V99.916z M473.977,126.746c-1.532,2.071-3.376,3.117-5.535,3.117
					c-2.1,0-3.902-1.046-5.412-3.117c-1.508-2.068-2.267-4.572-2.267-7.51c0-2.931,0.759-5.429,2.267-7.507
					c1.51-2.073,3.313-3.11,5.412-3.11c2.159,0,4.003,1.037,5.535,3.11c1.539,2.078,2.307,4.576,2.307,7.507
					C476.283,122.174,475.516,124.678,473.977,126.746z"/>
			</g>
			<path fill="#886974" d="M429.756,115.938h-6.044V96.814h-9.654v35.93c-0.809,0.384-1.847,0.718-3.103,1.021
				c-1.26,0.299-2.766,0.438-4.527,0.438h-10.187V106.16h12.683v-6.245H386.2v33.402c0,2.156,0.628,3.893,1.884,5.188
				c1.252,1.298,2.972,1.939,5.138,1.939h12.829c1.864,0,3.452-0.223,4.752-0.688c1.308-0.449,2.395-1.013,3.255-1.666v25.85h5.423
				c2.697,0,4.231-0.976,4.231-4.438v-37.4h6.044v41.839h5.424c2.698,0,4.235-0.976,4.235-4.139V96.814h-9.659V115.938z"/>
			<g>
				<path fill="#886974" d="M358.23,134.04v-6.159h-24.207v-21.806h20.731v-6.159h-30.914v26.999c0,2.159,0.627,3.888,1.879,5.187
					c1.267,1.289,2.97,1.939,5.14,1.939H358.23z"/>
				<path fill="#886974" d="M329.75,146.347h33.9v17.594h5.746c2.839,0,4.468-1.024,4.468-4.376v-19.383H329.75V146.347z"/>
				<path fill="#886974" d="M363.65,113.399h-16.266v6.078h16.266v16.573h5.746c2.839,0,4.468-1.023,4.468-4.37V96.814H363.65
					V113.399z"/>
			</g>
		</g>
	</g>
</g>
</svg>
